<?xml version="1.0" encoding="UTF-8" standalone="no"?>
<!-- Created with Inkscape (http://www.inkscape.org/) -->

<svg
   xmlns:dc="http://purl.org/dc/elements/1.1/"
   xmlns:cc="http://creativecommons.org/ns#"
   xmlns:rdf="http://www.w3.org/1999/02/22-rdf-syntax-ns#"
   xmlns:svg="http://www.w3.org/2000/svg"
   xmlns="http://www.w3.org/2000/svg"
   xmlns:sodipodi="http://sodipodi.sourceforge.net/DTD/sodipodi-0.dtd"
   xmlns:inkscape="http://www.inkscape.org/namespaces/inkscape"
   width="121.69765mm"
   height="105.80755mm"
   viewBox="0 0 121.69765 105.80755"
   version="1.1"
   id="svg8"
   inkscape:version="0.92.3 (2405546, 2018-03-11)"
   sodipodi:docname="logo.svg">
  <defs
     id="defs2" />
  <sodipodi:namedview
     id="base"
     pagecolor="#ffffff"
     bordercolor="#666666"
     borderopacity="1.0"
     inkscape:pageopacity="0.0"
     inkscape:pageshadow="2"
     inkscape:zoom="2.8"
     inkscape:cx="-92.982917"
     inkscape:cy="175.47685"
     inkscape:document-units="mm"
     inkscape:current-layer="layer2"
     showgrid="false"
     inkscape:window-width="3820"
     inkscape:window-height="1032"
     inkscape:window-x="0"
     inkscape:window-y="28"
     inkscape:window-maximized="0"
     showguides="false"
     fit-margin-top="0"
     fit-margin-left="0"
     fit-margin-right="0"
     fit-margin-bottom="0" />
  <metadata
     id="metadata5">
    <rdf:RDF>
      <cc:Work
         rdf:about="">
        <dc:format>image/svg+xml</dc:format>
        <dc:type
           rdf:resource="http://purl.org/dc/dcmitype/StillImage" />
        <dc:title></dc:title>
      </cc:Work>
    </rdf:RDF>
  </metadata>
  <g
     inkscape:groupmode="layer"
     id="layer2"
     inkscape:label="Layer 2"
     transform="translate(-5.2495858,-66.881189)">
    <path
       style="fill:#ffffff;fill-opacity:0.51063831;stroke:none;stroke-width:0.99999994px;stroke-linecap:butt;stroke-linejoin:miter;stroke-opacity:1"
       d="m 460.62891,252.7793 c 0,0 17.17248,22.22148 -35.35547,20.20117 -41.57779,-1.59914 -45.79415,44.16056 -45.75391,63.35351 -15.84034,12.18168 -33.58502,25.8904 -52.67578,40.75 -9.59602,-8.51451 -20.34024,-15.76555 -31.94727,-21.56054 -3.81662,-11.91758 -6.98158,-31.01303 -28.7207,-33.04492 -24.50397,-2.80318 -30.42391,7.10636 -39.31836,17.1875 -56.14107,0.2281 -104.02779,22.06064 -128.473212,70.34291 -14.270237,3.82619 -25.453199,5.7252 -31.072546,24.56027 -6.0903,18.62807 8.347656,29.45342 12.993583,36.51897 -0.468307,4.52536 0.0081,4.42692 0.0014,8.97433 0.03742,27.4428 8.491889,54.27358 24.318355,77.17578 -54.364749,47.2514 -90.965591,83.85694 -83.916012,91.51953 16.313351,17.73191 79.817092,-28.70177 116.271482,-57.98242 25.80155,19.22734 57.58171,29.67913 90.30469,29.69922 81.17338,-3.4e-4 146.97707,-62.86502 146.97656,-140.41211 -0.0899,-31.49727 -11.26276,-62.05093 -31.72266,-86.75 17.26002,-17.63414 33.26501,-34.1188 47.57227,-48.91602 29.61134,-1.01263 86.07429,-5.61317 80.49609,-47.06836 7.39398,-5.70026 11.17506,-11.76796 8.14258,-22.1289 -2.10584,8.21277 -8.24841,6.95121 -12.94531,4.54101 4.72852,-5.63318 10.44799,-21.48614 -5.17578,-26.96093 z"
       transform="scale(0.26458333)"
       id="path3785"
       inkscape:connector-curvature="0"
       sodipodi:nodetypes="csccccccccccsccccccccc" />
    <path
       style="fill:#ffffff;stroke:none;stroke-width:0.26458332px;stroke-linecap:butt;stroke-linejoin:miter;stroke-opacity:1"
       d="m 31.805073,108.84225 -9.888972,5.87993 c 0,0 -1.069078,1.87089 0,4.27631 1.069078,2.40543 16.83798,24.85607 16.83798,24.85607 l 10.95805,-6.1472 z"
       id="path3729"
       inkscape:connector-curvature="0" />
    <path
       style="fill:#ffffff;stroke:none;stroke-width:0.26458332px;stroke-linecap:butt;stroke-linejoin:miter;stroke-opacity:1"
       d="m 34.878674,107.37227 10.022607,-6.01357 12.428032,20.04522 c 0,0 -2.586106,0.89308 3.741774,9.75534 l -8.418991,4.94448 z"
       id="path3731"
       inkscape:connector-curvature="0"
       sodipodi:nodetypes="cccccc" />
    <path
       style="fill:#ffffff;stroke:none;stroke-width:0.26458332px;stroke-linecap:butt;stroke-linejoin:miter;stroke-opacity:1"
       d="M 47.70761,99.888721 59.333836,93.206984 70.69279,114.05401 60.269278,119.93394 Z"
       id="path3733"
       inkscape:connector-curvature="0" />
    <path
       style="fill:#ffffff;stroke:none;stroke-width:0.26458332px;stroke-linecap:butt;stroke-linejoin:miter;stroke-opacity:1"
       d="m 62.273798,91.603366 11.358957,20.847024 7.750815,-4.40995 -7.216277,-17.105248 c 0,0 -3.073599,-6.815373 -11.893495,0.668174 z"
       id="path3735"
       inkscape:connector-curvature="0" />
    <path
       style="fill:#ffffff;stroke:none;stroke-width:0.26458332px;stroke-linecap:butt;stroke-linejoin:miter;stroke-opacity:1"
       d="m 43.164029,150.5363 39.82316,-23.51972 -2.806333,-3.60814 -14.165283,8.01809 -5.078122,-7.88446 20.713388,-11.62622 c 0,0 7.216277,-5.47902 8.285356,1.73725 1.069078,7.21628 1.603618,18.8425 1.603618,18.8425 0,0 -7.483546,3.74178 -4.677217,8.55263 2.80633,4.81085 9.476265,18.74733 9.476265,18.74733 0,0 -1.992241,7.82076 -33.096042,-2.38067 0,0 1.570041,3.41129 -1.503558,-3.00318 -3.0736,-6.41447 -8.552625,1.33634 -8.552625,1.33634 0,0 -5.612659,1.46999 -10.022607,-5.21175 z"
       id="path3737"
       inkscape:connector-curvature="0"
       sodipodi:nodetypes="ccccccscsccscc" />
  </g>
</svg>
