<?xml version="1.0" encoding="UTF-8" standalone="no"?>
<!-- Created with Inkscape (http://www.inkscape.org/) -->

<svg
   xmlns:dc="http://purl.org/dc/elements/1.1/"
   xmlns:cc="http://creativecommons.org/ns#"
   xmlns:rdf="http://www.w3.org/1999/02/22-rdf-syntax-ns#"
   xmlns:svg="http://www.w3.org/2000/svg"
   xmlns="http://www.w3.org/2000/svg"
   xmlns:sodipodi="http://sodipodi.sourceforge.net/DTD/sodipodi-0.dtd"
   xmlns:inkscape="http://www.inkscape.org/namespaces/inkscape"
   width="121.69765mm"
   height="105.80755mm"
   viewBox="0 0 121.69765 105.80755"
   version="1.1"
   id="svg8"
   inkscape:version="0.92.3 (2405546, 2018-03-11)"
   sodipodi:docname="logo.svg">
  <defs
     id="defs2" />
  <sodipodi:namedview
     id="base"
     pagecolor="#ffffff"
     bordercolor="#666666"
     borderopacity="1.0"
     inkscape:pageopacity="0.0"
     inkscape:pageshadow="2"
     inkscape:zoom="0.49497475"
     inkscape:cx="217.15765"
     inkscape:cy="-166.05623"
     inkscape:document-units="mm"
     inkscape:current-layer="layer2"
     showgrid="false"
     inkscape:window-width="3820"
     inkscape:window-height="1032"
     inkscape:window-x="0"
     inkscape:window-y="28"
     inkscape:window-maximized="0"
     showguides="false"
     fit-margin-top="0"
     fit-margin-left="0"
     fit-margin-right="0"
     fit-margin-bottom="0" />
  <metadata
     id="metadata5">
    <rdf:RDF>
      <cc:Work
         rdf:about="">
        <dc:format>image/svg+xml</dc:format>
        <dc:type
           rdf:resource="http://purl.org/dc/dcmitype/StillImage" />
        <dc:title></dc:title>
      </cc:Work>
    </rdf:RDF>
  </metadata>
  <g
     inkscape:groupmode="layer"
     id="layer2"
     inkscape:label="Layer 2"
     transform="translate(-5.2495858,-66.881189)">
    <path
       style="fill:#ffffff;fill-opacity:0.51063831;stroke:none;stroke-width:0.99999994px;stroke-linecap:butt;stroke-linejoin:miter;stroke-opacity:1"
       d="m 460.62891,252.7793 c 0,0 17.17248,22.22148 -35.35547,20.20117 -41.57779,-1.59914 -45.79415,44.16056 -45.75391,63.35351 -15.84034,12.18168 -33.58502,25.8904 -52.67578,40.75 a 146.9772,140.41123 0 0 0 -31.94727,-21.56054 c -3.81662,-11.91758 -12.33872,-30.65589 -28.7207,-33.04492 -1.51523,-0.22098 -3.00342,-0.33729 -4.46094,-0.36133 -17.0989,-0.28209 -30.02219,12.11883 -34.85742,17.54883 A 146.9772,140.41123 0 0 0 95.169922,418.9375 c -6.348725,2.52107 -17.836842,8.42461 -21.429688,19.20312 -3.233157,9.6995 2.63337,21.23914 7.279297,28.30469 a 146.9772,140.41123 0 0 0 -0.71289,13.61719 146.9772,140.41123 0 0 0 24.318359,77.17578 c -54.364753,47.2514 -90.965595,83.85694 -83.916016,91.51953 16.313351,17.73191 79.817096,-28.70177 116.271486,-57.98242 a 146.9772,140.41123 0 0 0 90.30469,29.69922 146.9772,140.41123 0 0 0 146.97656,-140.41211 146.9772,140.41123 0 0 0 -31.72266,-86.75 c 17.26002,-17.63414 33.26501,-34.1188 47.57227,-48.91602 29.61134,-1.01263 86.07429,-5.61317 80.49609,-47.06836 7.39398,-5.70026 11.17506,-11.76796 8.14258,-22.1289 -2.10584,8.21277 -8.24841,6.95121 -12.94531,4.54101 4.72852,-5.63318 10.44799,-21.48614 -5.17578,-26.96093 z"
       transform="scale(0.26458333)"
       id="path3785"
       inkscape:connector-curvature="0" />
    <path
       style="fill:#ffffff;stroke:none;stroke-width:0.26458332px;stroke-linecap:butt;stroke-linejoin:miter;stroke-opacity:1"
       d="m 31.805073,108.84225 -9.888972,5.87993 c 0,0 -1.069078,1.87089 0,4.27631 1.069078,2.40543 16.83798,24.85607 16.83798,24.85607 l 10.95805,-6.1472 z"
       id="path3729"
       inkscape:connector-curvature="0" />
    <path
       style="fill:#ffffff;stroke:none;stroke-width:0.26458332px;stroke-linecap:butt;stroke-linejoin:miter;stroke-opacity:1"
       d="m 34.878674,107.37227 10.022607,-6.01357 12.428032,20.04522 c 0,0 -2.586106,0.89308 3.741774,9.75534 l -8.418991,4.94448 z"
       id="path3731"
       inkscape:connector-curvature="0"
       sodipodi:nodetypes="cccccc" />
    <path
       style="fill:#ffffff;stroke:none;stroke-width:0.26458332px;stroke-linecap:butt;stroke-linejoin:miter;stroke-opacity:1"
       d="M 47.70761,99.888721 59.333836,93.206984 70.69279,114.05401 60.269278,119.93394 Z"
       id="path3733"
       inkscape:connector-curvature="0" />
    <path
       style="fill:#ffffff;stroke:none;stroke-width:0.26458332px;stroke-linecap:butt;stroke-linejoin:miter;stroke-opacity:1"
       d="m 62.273798,91.603366 11.358957,20.847024 7.750815,-4.40995 -7.216277,-17.105248 c 0,0 -3.073599,-6.815373 -11.893495,0.668174 z"
       id="path3735"
       inkscape:connector-curvature="0" />
    <path
       style="fill:#ffffff;stroke:none;stroke-width:0.26458332px;stroke-linecap:butt;stroke-linejoin:miter;stroke-opacity:1"
       d="m 43.164029,150.5363 39.82316,-23.51972 -2.806333,-3.60814 -14.165283,8.01809 -5.078122,-7.88446 20.713388,-11.62622 c 0,0 7.216277,-5.47902 8.285356,1.73725 1.069078,7.21628 1.603618,18.8425 1.603618,18.8425 0,0 -7.483546,3.74178 -4.677217,8.55263 2.80633,4.81085 2.672694,5.61266 2.672694,5.61266 0,0 -4.543581,12.82894 -22.985179,15.10073 0,0 -1.737251,-0.93544 -4.81085,-7.34991 -3.0736,-6.41447 -8.552625,1.33634 -8.552625,1.33634 0,0 -5.612659,1.46999 -10.022607,-5.21175 z"
       id="path3737"
       inkscape:connector-curvature="0" />
  </g>
</svg>
